<svg width="432" height="95" viewBox="0 0 432 95" fill="none" xmlns="http://www.w3.org/2000/svg">
<path d="M128.744 27.2727V68H120.392L104.185 44.4943H103.926V68H94.0824V27.2727H102.554L118.582 50.7386H118.92V27.2727H128.744ZM149.212 68.5767C146.017 68.5767 143.26 67.947 140.94 66.6875C138.633 65.4148 136.856 63.6051 135.61 61.2585C134.377 58.8987 133.761 56.0947 133.761 52.8466C133.761 49.6913 134.384 46.9337 135.63 44.5739C136.876 42.2008 138.633 40.358 140.9 39.0455C143.167 37.7197 145.838 37.0568 148.914 37.0568C151.088 37.0568 153.077 37.3949 154.88 38.071C156.683 38.7472 158.241 39.7481 159.553 41.0739C160.866 42.3996 161.887 44.0369 162.616 45.9858C163.345 47.9214 163.71 50.142 163.71 52.6477V55.0739H137.161V49.4261H154.661C154.648 48.392 154.403 47.4706 153.925 46.6619C153.448 45.8532 152.792 45.2235 151.957 44.7727C151.135 44.3087 150.187 44.0767 149.113 44.0767C148.026 44.0767 147.051 44.322 146.19 44.8125C145.328 45.2898 144.645 45.946 144.141 46.7812C143.638 47.6032 143.372 48.5379 143.346 49.5852V55.3324C143.346 56.5786 143.591 57.6723 144.082 58.6136C144.572 59.5417 145.268 60.2642 146.17 60.7812C147.071 61.2983 148.145 61.5568 149.391 61.5568C150.253 61.5568 151.035 61.4375 151.738 61.1989C152.441 60.9602 153.044 60.6089 153.548 60.1449C154.051 59.6809 154.429 59.1108 154.681 58.4347L163.61 58.6932C163.239 60.6951 162.424 62.4384 161.164 63.9233C159.918 65.3949 158.281 66.5417 156.252 67.3636C154.224 68.1723 151.877 68.5767 149.212 68.5767ZM182.935 68.5767C179.726 68.5767 176.969 67.9205 174.662 66.608C172.368 65.2822 170.598 63.4394 169.352 61.0795C168.119 58.7064 167.503 55.9555 167.503 52.8267C167.503 49.6847 168.119 46.9337 169.352 44.5739C170.598 42.2008 172.368 40.358 174.662 39.0455C176.969 37.7197 179.726 37.0568 182.935 37.0568C186.143 37.0568 188.894 37.7197 191.188 39.0455C193.494 40.358 195.264 42.2008 196.497 44.5739C197.743 46.9337 198.366 49.6847 198.366 52.8267C198.366 55.9555 197.743 58.7064 196.497 61.0795C195.264 63.4394 193.494 65.2822 191.188 66.608C188.894 67.9205 186.143 68.5767 182.935 68.5767ZM182.994 61.2386C184.161 61.2386 185.149 60.8807 185.957 60.1648C186.766 59.4489 187.383 58.4545 187.807 57.1818C188.244 55.9091 188.463 54.4375 188.463 52.767C188.463 51.0701 188.244 49.5852 187.807 48.3125C187.383 47.0398 186.766 46.0455 185.957 45.3295C185.149 44.6136 184.161 44.2557 182.994 44.2557C181.788 44.2557 180.767 44.6136 179.932 45.3295C179.11 46.0455 178.48 47.0398 178.043 48.3125C177.618 49.5852 177.406 51.0701 177.406 52.767C177.406 54.4375 177.618 55.9091 178.043 57.1818C178.48 58.4545 179.11 59.4489 179.932 60.1648C180.767 60.8807 181.788 61.2386 182.994 61.2386ZM262.172 35.267V27.2727H296.595V35.267H284.246V68H274.541V35.267H262.172ZM298.231 68V37.4545H307.677V43.0227H307.995C308.552 41.0076 309.46 39.5095 310.719 38.5284C311.979 37.5341 313.444 37.0369 315.114 37.0369C315.565 37.0369 316.029 37.0701 316.506 37.1364C316.984 37.1894 317.428 37.2756 317.839 37.3949V45.8466C317.375 45.6875 316.765 45.5616 316.009 45.4688C315.267 45.3759 314.604 45.3295 314.021 45.3295C312.867 45.3295 311.826 45.5881 310.898 46.1051C309.984 46.6089 309.261 47.3182 308.731 48.233C308.214 49.1345 307.955 50.1951 307.955 51.4148V68H298.231ZM329.263 68.517C327.315 68.517 325.585 68.1922 324.073 67.5426C322.575 66.8797 321.388 65.8854 320.513 64.5597C319.652 63.2206 319.221 61.5436 319.221 59.5284C319.221 57.8314 319.519 56.3996 320.116 55.233C320.712 54.0663 321.534 53.1184 322.582 52.3892C323.629 51.66 324.835 51.1098 326.201 50.7386C327.567 50.3542 329.025 50.0956 330.576 49.9631C332.313 49.804 333.711 49.6383 334.772 49.4659C335.833 49.2803 336.602 49.0218 337.079 48.6903C337.569 48.3456 337.815 47.8617 337.815 47.2386V47.1392C337.815 46.1184 337.463 45.3295 336.761 44.7727C336.058 44.2159 335.11 43.9375 333.917 43.9375C332.631 43.9375 331.597 44.2159 330.815 44.7727C330.032 45.3295 329.535 46.0985 329.323 47.0795L320.354 46.7614C320.62 44.9053 321.302 43.2481 322.403 41.7898C323.516 40.3182 325.041 39.1648 326.977 38.3295C328.925 37.4811 331.265 37.0568 333.996 37.0568C335.945 37.0568 337.742 37.2888 339.386 37.7528C341.03 38.2036 342.461 38.8665 343.681 39.7415C344.901 40.6032 345.842 41.6638 346.505 42.9233C347.181 44.1828 347.519 45.6212 347.519 47.2386V68H338.371V63.7443H338.133C337.589 64.7784 336.893 65.6534 336.045 66.3693C335.21 67.0852 334.222 67.6222 333.082 67.9801C331.955 68.3381 330.682 68.517 329.263 68.517ZM332.266 62.1534C333.314 62.1534 334.255 61.9413 335.09 61.517C335.939 61.0928 336.615 60.5095 337.119 59.767C337.622 59.0114 337.874 58.1364 337.874 57.142V54.2386C337.596 54.3845 337.258 54.517 336.86 54.6364C336.476 54.7557 336.051 54.8684 335.587 54.9744C335.123 55.0805 334.646 55.1733 334.156 55.2528C333.665 55.3324 333.194 55.4053 332.744 55.4716C331.829 55.6174 331.047 55.8428 330.397 56.1477C329.761 56.4527 329.27 56.8504 328.925 57.3409C328.594 57.8182 328.428 58.3883 328.428 59.0511C328.428 60.0587 328.786 60.8277 329.502 61.358C330.231 61.8883 331.153 62.1534 332.266 62.1534ZM382.002 37.4545L371.522 68H360.386L349.925 37.4545H360.167L365.795 58.4943H366.113L371.761 37.4545H382.002ZM399.025 68.5767C395.83 68.5767 393.072 67.947 390.752 66.6875C388.445 65.4148 386.669 63.6051 385.423 61.2585C384.19 58.8987 383.573 56.0947 383.573 52.8466C383.573 49.6913 384.196 46.9337 385.442 44.5739C386.689 42.2008 388.445 40.358 390.712 39.0455C392.979 37.7197 395.651 37.0568 398.727 37.0568C400.901 37.0568 402.889 37.3949 404.692 38.071C406.496 38.7472 408.053 39.7481 409.366 41.0739C410.678 42.3996 411.699 44.0369 412.428 45.9858C413.157 47.9214 413.522 50.142 413.522 52.6477V55.0739H386.974V49.4261H404.474C404.46 48.392 404.215 47.4706 403.738 46.6619C403.261 45.8532 402.604 45.2235 401.769 44.7727C400.947 44.3087 399.999 44.0767 398.925 44.0767C397.838 44.0767 396.864 44.322 396.002 44.8125C395.14 45.2898 394.458 45.946 393.954 46.7812C393.45 47.6032 393.185 48.5379 393.158 49.5852V55.3324C393.158 56.5786 393.404 57.6723 393.894 58.6136C394.385 59.5417 395.081 60.2642 395.982 60.7812C396.884 61.2983 397.958 61.5568 399.204 61.5568C400.066 61.5568 400.848 61.4375 401.55 61.1989C402.253 60.9602 402.856 60.6089 403.36 60.1449C403.864 59.6809 404.242 59.1108 404.494 58.4347L413.423 58.6932C413.051 60.6951 412.236 62.4384 410.977 63.9233C409.73 65.3949 408.093 66.5417 406.065 67.3636C404.036 68.1723 401.69 68.5767 399.025 68.5767ZM428.213 27.2727V68H418.489V27.2727H428.213Z" fill="black"/>
<path d="M232.988 67.5264C231.86 66.9419 230.281 66.1441 226.323 64.1309C223.165 62.5352 221.032 61.4405 213.865 57.7666C212.316 56.9688 210.922 56.2637 210.758 56.1895C210.604 56.1153 210.43 55.9761 210.368 55.8833C210.286 55.7442 209.004 51.1333 206.185 40.7705L206 40.0747L207.528 40.0469L209.045 40.0376H210.583H212.122H213.66V40.7613V41.4849L215.136 40.0933L216.613 38.7017L215.803 38.6553L214.993 38.6089L216.541 37.1245C217.392 36.3081 218.13 35.6309 218.171 35.6123C218.305 35.5752 222.334 38.5718 225.677 41.188C226.498 41.8282 227.195 42.357 227.226 42.357C227.328 42.357 228.159 40.149 228.087 40.0469C228.046 39.9912 227.461 39.6387 226.764 39.2676C226.077 38.8965 225 38.3028 224.385 37.9502C222.796 37.0596 221.053 36.104 220.027 35.5659C218.807 34.9165 218.838 34.9629 218.981 34.2578C219.207 33.1353 219.063 32.4673 218.376 31.4561C217.208 29.7212 216.603 28.1255 216.326 26.0381L216.213 25.1568L215.239 24.2476C214.583 23.6353 214.183 23.1807 214.008 22.8282C213.752 22.3272 213.752 22.2993 213.916 21.919C214.08 21.5201 214.418 21.2232 215.741 20.3047C219.34 17.8277 225.667 15.4991 229.974 15.0723C232.711 14.8033 234.106 15.2857 234.106 16.5103C234.106 16.7237 233.952 17.6978 233.757 18.6812C233.45 20.2769 233.388 20.4717 233.204 20.4995C233.091 20.5181 232.26 20.648 231.358 20.7871C229.379 21.0933 226.569 21.7149 224.662 22.2715C223.278 22.6797 222.14 23.1065 222.714 22.9951C222.919 22.958 223.011 22.9951 223.093 23.1343C223.175 23.2735 223.175 23.3384 223.073 23.3755C222.519 23.5982 226.098 22.856 228.692 22.2159C229.707 21.9654 231.173 21.6314 231.963 21.4737L233.388 21.1953L235.757 22.0025C238.741 23.0137 239.315 23.2549 239.592 23.5703C240.525 24.6465 238.587 25.7412 235.183 26.0474L233.993 26.1587L234.137 26.5391C234.219 26.7432 234.516 27.4112 234.803 28.0142C235.101 28.6358 235.326 29.2481 235.326 29.4336C235.326 29.8326 235.019 30.1665 234.403 30.4077L233.973 30.584V31.1221C233.973 31.5396 233.932 31.6973 233.768 31.8272C233.604 31.9571 233.573 32.0684 233.624 32.3003C233.675 32.5508 233.634 32.6714 233.357 32.9776C233.06 33.3116 233.029 33.4229 233.009 34.0352C232.947 35.6309 231.789 36.1875 229.225 35.8535C228.682 35.7793 228.456 35.7886 228.189 35.8907C227.8 36.0391 227.39 36.4844 227.215 36.9668C227.103 37.2823 227.103 37.3008 227.482 37.5977C227.697 37.7647 228.261 38.1543 228.743 38.4698C230.086 39.3418 231.819 40.5108 231.819 40.5386C231.819 40.5572 231.512 40.6128 231.122 40.6685C230.015 40.8355 230.025 40.8355 230.23 41.1138C230.322 41.2437 230.937 41.958 231.583 42.7095C232.229 43.461 233.296 44.667 233.942 45.4092C234.588 46.1514 235.398 47.0791 235.747 47.4688C236.095 47.8584 236.444 48.1831 236.536 48.1924C236.669 48.1924 240.781 47.1348 241.981 46.7915C242.299 46.6988 242.371 46.6338 242.422 46.3462C242.535 45.8081 243.17 44.3238 243.704 43.3496C245.406 40.2788 247.856 37.7647 250.656 36.2339C252.43 35.2598 254.47 34.7959 256.019 35C257.557 35.2041 258.931 36.0391 259.618 37.2173C260.223 38.2378 260.448 39.7408 260.202 41.1138L260.1 41.689L260.715 42.2178C261.402 42.8116 261.945 43.6836 261.945 44.1753C261.945 44.5093 261.72 45.0845 261.494 45.3164C261.412 45.3999 261.34 45.771 261.31 46.17C261.279 46.6245 261.187 47.0049 261.053 47.2368C260.94 47.4317 260.817 47.8399 260.787 48.1275C260.756 48.4243 260.612 48.8882 260.479 49.1573C260.335 49.4356 260.192 49.8345 260.151 50.0664C260.007 50.855 259.597 51.2632 258.644 51.5879L258.151 51.7549V53.7588V55.7627L257.105 56.2637C255.126 57.21 241.889 63.8897 235.767 67.0254C234.762 67.545 233.911 67.9624 233.87 67.9624C233.839 67.9532 233.439 67.7583 232.988 67.5264ZM236.864 53.9444C238.002 53.4805 240.248 52.5528 241.858 51.8941C243.468 51.2354 245.59 50.3633 246.575 49.9644C247.559 49.5655 248.779 49.0738 249.271 48.8604C249.764 48.647 250.225 48.48 250.287 48.48C250.358 48.48 250.369 48.4522 250.307 48.3965C250.256 48.3501 249.6 48.211 248.851 48.0996L247.498 47.8863L247.979 47.6636C248.246 47.543 249.077 47.1719 249.835 46.8472L251.209 46.2534L251.579 46.606C252.173 47.1812 252.922 48.2852 253.147 48.9346C253.527 50.0293 253.404 51.9868 252.871 53.2022L252.727 53.5362L253.137 53.1187C253.732 52.5249 254.234 51.5786 254.316 50.9014L254.388 50.3355H255.178C256.624 50.3355 258.151 49.9829 258.808 49.4912C259.269 49.148 259.495 48.6006 259.31 48.2388C259.115 47.8492 259.177 47.6265 259.546 47.3111C259.956 46.9678 260.018 46.5967 259.751 46.0215C259.607 45.7061 259.607 45.6597 259.751 45.4556C259.843 45.335 259.956 45.2329 260.018 45.2329C260.151 45.2329 260.53 44.6763 260.53 44.4815C260.53 44.398 260.448 44.2403 260.346 44.1197C260.171 43.9248 260.13 43.9156 259.751 44.0269C259.002 44.2495 257.3 45.0288 256.48 45.5205C255.557 46.0865 254.491 47.0049 254.255 47.4409L254.101 47.7285L253.599 47.0606C253.024 46.2998 251.702 45.066 251.363 44.9917C251.209 44.9546 248.841 45.9751 243.211 48.5171C238.854 50.4839 235.244 52.0889 235.203 52.0703C235.162 52.0518 234.485 51.4395 233.716 50.6973C227.667 44.9453 221.76 43.5259 221.76 43.8785C221.76 44.1475 227.667 46.6338 231.707 51.2632C233.152 52.9239 234.424 54.3897 234.537 54.5288C234.649 54.668 234.752 54.7793 234.762 54.7886C234.772 54.7886 235.726 54.4082 236.864 53.9444ZM246.729 45.7154L247.446 45.437L247.518 44.667C247.559 44.2403 247.662 43.7115 247.764 43.4888L247.938 43.0899L247.631 42.8116L247.323 42.5332L247.169 42.8023C247.087 42.9507 246.831 43.3589 246.595 43.7207C246.226 44.2867 245.549 45.8174 245.549 46.0865C245.549 46.1607 245.621 46.1421 246.729 45.7154ZM254.87 42.7373C255.229 42.6353 255.721 42.5425 255.967 42.5425C256.388 42.5425 256.408 42.5332 256.511 42.19C256.859 41.0117 256.921 39.815 256.665 39.0357C256.09 37.2823 253.947 37.1617 251.281 38.7481C250.338 39.3047 248.923 40.4458 248.923 40.6407C248.923 40.7056 249.097 40.9283 249.313 41.1509L249.702 41.5406L250.061 41.4014C250.635 41.188 251.23 41.1324 251.712 41.2437C252.553 41.4478 252.963 41.9859 252.973 42.9229L252.983 43.5352L253.599 43.229C253.937 43.062 254.511 42.8394 254.87 42.7373ZM231.43 34.4619C231.891 34.2671 232.014 33.7569 231.748 33.1538C231.696 33.0332 231.768 32.9405 232.045 32.792C232.517 32.5415 232.691 32.2725 232.496 32.0962C232.414 32.022 232.055 31.9107 231.696 31.8457L231.03 31.7159L231.44 31.6509C232.086 31.5489 232.66 31.2149 232.701 30.9273C232.722 30.7417 232.65 30.6211 232.373 30.417C231.953 30.1201 231.901 29.9253 232.24 29.916C232.363 29.916 232.793 29.8511 233.183 29.7769C234.506 29.5264 234.424 29.211 232.968 28.9512C231.717 28.7285 230.579 28.3111 228.21 27.2163C225.882 26.1402 225.893 26.1402 225.124 26.8545C224.672 27.272 224.488 27.6338 224.16 28.7842C224.078 29.0533 223.196 28.7935 222.991 28.4409C222.929 28.3389 222.888 27.9214 222.888 27.5039C222.888 26.7896 222.868 26.7339 222.591 26.4742C222.17 26.0938 221.75 26.1031 221.299 26.5113C220.663 27.0865 220.704 28.2925 221.391 29.2295C221.832 29.8326 222.396 30.1016 223.227 30.1016C223.698 30.1016 223.821 30.1387 223.862 30.2686C224.457 32.0035 225.154 32.7085 227.123 33.5713C228.979 34.3877 230.743 34.7495 231.43 34.4619ZM237.172 24.1177C237.664 24.0342 238.043 23.9322 237.992 23.8951C237.941 23.8579 237.418 23.6724 236.833 23.4776C236.249 23.2827 235.193 22.9488 234.496 22.7261C233.798 22.5034 233.101 22.3179 232.947 22.3179C232.793 22.3179 231.563 22.5777 230.209 22.8838C228.866 23.1993 227.533 23.5054 227.246 23.5611C226.621 23.7002 226.692 23.7188 228.477 23.9414C231.86 24.3682 235.316 24.4424 237.172 24.1177Z" fill="black"/>
</svg>
